<svg xmlns="http://www.w3.org/2000/svg" width="550" height="500" alt="img not found" viewBox="0 0 3033.964 1985.069">
        <g id="contact" transform="translate(-299 -395.141)">
          <path id="LegLower" d="M6.782,214.623C-.683,194.675,54.289,14.338,65.525,2.835c26.794-27.43,73.9,22.763,73.8,37.463-.212,33.374-32.244,164.349-39.765,174.293S11.474,227.16,6.782,214.623Z" transform="translate(1947.848 2187.366) rotate(163)" fill="#d4a181"/>
          <g id="background">
            <path id="Weird_Shape" data-name="Weird Shape" d="M29.248,204.6C227.216-115.49,1485.88-56.907,1873.162,358.614s-55.326,1338.655-452.078,1338.655S1024.331,1074,860.738,890.959-168.719,524.68,29.248,204.6Z" transform="translate(766.503 395.141)" fill="rgba(145,255,189,0.7)"/>
            <path id="Weird_Shape-2" data-name="Weird Shape" d="M454.331,1417.245c250.8,57.462,260.978-214.993,260.854-576.769s50-776.752-200.8-834.214S-.124,296.369,0,658.146,203.536,1359.783,454.331,1417.245Z" transform="translate(1374.651 447.166) rotate(49)" fill="rgba(43,68,255,0.6)"/>
            <path id="Weird_Shape-3" data-name="Weird Shape" d="M202.527,642.951c147.629,0,310.493-141.354,310.493-321.476S350.157,0,202.527,0,0,206.133,0,353.865,54.9,642.951,202.527,642.951Z" transform="translate(2276.483 1449.665)" fill="rgba(255,115,198,0.7)"/>
            <g id="Big_Leaf_Plant" data-name="Big Leaf Plant" transform="translate(299 1387.15)">
              <g id="Big_Ass_Leaf" data-name="Big Ass Leaf" transform="translate(91.744 1)">
                <path id="leaf" d="M96.761.716c11.426-1.448,23.622-.937,34.248,3.742,22.6,9.95,29.018,37.643,28.708,60.151-.334,24.226-5.293,50.687,12.461,70.207,8.161,8.974,18.314,15.842,26.328,24.98a118.731,118.731,0,0,1,20.257,32.94c9.135,22.041,13.618,47.96,5.265,71.081-7.355,20.356-25.858,38.73-21.86,61.877,4.17,24.147,27.638,42.607,42.31,60.593,16.6,20.354,31.893,46.368,34.4,73.061,2.408,25.581-8.325,51.452-24.8,70.789-32.912,38.638-82.384,57.58-132.267,57.463-21.179-.051-45.158-1.043-63.435-12.85-5.649-3.649-8.629-7.744-11.987-13.435-3.011-5.1-6.988-8.424-11.592-12.035-10.114-7.932-17.418-18.623-22.08-30.59-18.1-46.482-3.634-103.985,21.7-145.261,6-9.779,10.919-19.19,8-30.846-3.044-12.168-10.524-23.142-17.141-33.6-6.538-10.337-14-20.2-19.113-31.374C.826,265.9-.681,253.637.264,240.824c1.777-24.069,11.793-46.281,25.973-65.638C39.9,156.541,55.932,138.7,55.968,114.27c.039-25.893-16.647-48.927-9.538-75.252,2.943-10.9,8.856-22.085,18.383-28.62C73.95,4.129,86.015,2.078,96.761.716Z" transform="translate(0 0)" fill="#31ef44"/>
                <path id="middle_thing" data-name="middle thing" d="M5.529,4.868C5.743,1.391,9.72-.7,12.85.212c4.12,1.2,4.041,5.189,3.932,8.747a121.735,121.735,0,0,0,3.727,32.179c5.267,22.064,15,42.392,22.715,63.587,7.706,21.177,11.323,43.041,6.8,65.448C45.765,191.3,39.07,211.881,34.709,233.035c-3.844,18.645-7.934,38.306-2.08,56.9,5.633,17.9,18.087,32.48,27.055,48.657,18.564,33.488,26.8,70.639,27.9,108.871.511,17.753.051,35.67-3.919,53.082-2.285,10.026-5.356,23.576-13.638,30.5-3.819,3.192-10.351,4.3-13.565-.431-3.018-4.434-.37-11.3.588-16.023,4.149-20.456,4.984-41.362,3.99-62.133-.961-20.12-3.253-40.206-9.357-59.421-5.665-17.832-14.272-33.848-24.4-49.447-10.322-15.9-21.052-31.827-25.317-50.663-4.333-19.13-.813-38.6,3.894-57.361,4.978-19.848,11.5-39.127,18.239-58.437,6.569-18.817,8.9-36.62,5.271-56.314C22.207,81.906,3.031,45.386,5.529,4.868Z" transform="translate(83.766 37.242)" fill="#fff"/>
              </g>
              <g id="Big_Ass_Leaf-2" data-name="Big Ass Leaf" transform="translate(127.643 42.38)">
                <path id="leaf-2" data-name="leaf" d="M362.556,6.547C376.7,11,390.739,18.188,400.819,29.456c21.432,23.962,14.856,60.178,3.025,86.629-12.735,28.47-32.034,57.087-21.155,89.754,5,15.017,13.409,28.618,18.152,43.751a157.858,157.858,0,0,1,6.977,49.887c-.516,31-8.463,64.068-30.041,86.9-19,20.1-50.062,31.848-57.167,61.38-7.411,30.807,10.708,65.3,18.753,94.492,9.1,33.032,13.782,72.048,3.128,104.971-10.209,31.552-35.98,56.355-65.153,70.334-58.289,27.933-125.966,23.635-184.414-3.425-24.815-11.49-52.434-25.6-67.855-49.431-4.766-7.364-6.175-13.815-7.214-22.358-.931-7.661-3.9-13.733-7.464-20.489C2.569,607.015-.551,590.43.079,573.762,2.531,509.023,48.8,448.826,99.547,413.685c12.024-8.325,22.584-16.8,25.1-32.16,2.63-16.032-.553-33.048-2.984-48.988-2.4-15.753-6.132-31.444-6.432-47.419-.312-16.735,4.167-32.047,11.8-46.691,14.348-27.506,37.412-48.368,63.907-63.608,25.519-14.679,53.419-27.123,65.909-56,13.239-30.6,5.4-66.846,27.154-94.143,9.007-11.3,21.639-21.339,36.144-23.926C334.062-1.727,349.257,2.359,362.556,6.547Z" transform="translate(0 0)" fill="#2a7a08"/>
                <path id="middle_thing-2" data-name="middle thing" d="M206.029,3.355c2.006-4,7.709-4.31,10.911-1.533,4.215,3.656,2.106,8.342.182,12.5-5.912,12.771-9.493,26.188-11.887,40.134-4.98,28.993-3.859,58.36-5.541,87.652-1.681,29.268-8.489,57.127-25.087,81.2-15.649,22.7-33.867,43.434-49.646,66.114-13.908,19.989-28.616,41.05-31.16,66.256-2.451,24.262,4.752,48.3,7.071,72.332,4.8,49.752-4.324,98.226-22.337,144.1-8.366,21.3-17.948,42.269-31.381,60.731-7.734,10.631-18.165,25.007-31.343,28.7-6.077,1.7-14.272-.541-15.644-7.886-1.29-6.891,5.27-13.58,8.776-18.655,15.179-21.969,26.709-46.272,36.033-71.41,9.033-24.349,16.494-49.382,19.057-75.456,2.378-24.2.4-47.844-3.569-71.825-4.044-24.438-8.549-49.137-4.027-73.762,4.591-25.011,18.535-46.149,33.512-65.812,15.841-20.8,33.2-40.084,50.829-59.286,17.181-18.711,28.892-38.529,34.594-63.823C186.638,103.655,182.652,49.98,206.029,3.355Z" transform="translate(127.643 53.794)" fill="#fff"/>
              </g>
              <g id="Big_Ass_Leaf-3" data-name="Big Ass Leaf" transform="translate(0 232.729)">
                <path id="leaf-3" data-name="leaf" d="M53.076,0C76.587,0,97.257,12.929,111.5,31.275c16.673,21.477,20.04,47.7,26.811,73.3,3.369,12.738,9.163,25.384,19.317,34.038,9.236,7.871,20.96,9.446,32.015,13.291a76.172,76.172,0,0,1,46.979,48.786c8.6,27.554-.509,55.341,1.059,83.265C239.12,309.6,263.494,325.6,283.1,337.895c19.337,12.122,36.756,23.47,42.58,47.085,6.176,25.047,8.248,53-.306,77.746-14.242,41.2-55.921,59.338-96.195,62.151-36.549,2.552-82.506-1.455-109.954-28.978-16.425-16.47-22.373-39.5-21.635-62.421.458-14.25,3.18-28.369,6.7-42.14,2.493-9.761,5.862-19.479,6.822-29.565,2.551-26.833-21.355-31.987-41.7-39.354-25.858-9.363-43.962-27.049-56.55-51.688C1.137,247.791-3.782,222.038,3.246,196.781A87.206,87.206,0,0,1,22.174,162.23c3.887-4.38,9.364-8.034,12.872-12.636,3.274-4.3,2.561-9.867,1.433-14.9C31.262,111.44,15.006,92.185,9.192,68.974,3.944,48.024,7.046,21.949,25.51,8.433,33.488,2.593,43.325.064,53.076,0Z" transform="translate(0 0)" fill="#5eab23"/>
                <path id="middle_thing-3" data-name="middle thing" d="M13.314,2.654c24.92,27.537,31.693,64.9,33.681,101.112,1.114,20.306-.045,41.724,5.705,61.421,4.921,16.858,16.456,29.745,28.347,41.924,23.935,24.517,50.628,49.442,57.629,84.925,4.108,20.823,1.335,42.331,7.011,62.925a175.745,175.745,0,0,0,25.3,52.918c8.9,12.729,20.493,22.475,30.222,34.341,2.968,3.622,7.219,8.954,5.994,14.067-1.433,5.988-8.786,7.884-14,6.943-12.163-2.192-22.4-14.241-30.355-23A197.977,197.977,0,0,1,133.3,398.19c-8.917-17.162-16.1-35.373-19.164-54.628-3.184-19.975-1.6-40.792-8.868-59.963-12.232-32.256-41.9-51.292-63.354-76.432-26.727-31.327-22.741-70.317-20-108.852,1.5-21.177,3-45.092-7.316-64.427C10.658,26.508,1.879,19.626.186,11.237-1.364,3.55,7.1-4.217,13.314,2.654Z" transform="translate(71.799 57.932)" fill="#fff"/>
              </g>
              <path id="Base" d="M0,0C0,157.487,24.775,240.005,155.564,240.005S311.128,157.487,311.128,0Z" transform="translate(111.689 745.844)" fill="#ffbe5d"/>
            </g>
          </g>
          <g id="Plant" transform="translate(2789.503 1388.897)">
            <path id="Fill_19" data-name="Fill 19" d="M39.712,126.5C114.3,237.359,201.18,344.7,253.352,465.9c-2.1-14.286-4.332-28.558-6.827-42.809-13.238-75.545-29.691-150.539-46.979-225.441-8.8-38.136-18.116-76.134-27.667-114.129-5.137-20.407-10.21-40.827-15.453-61.214-1.27-4.941-2.361-13.566-3.951-22.308,50.7,147.391,99.6,294.894,135.363,445.828q7.038,29.713,11.96,59.321c1.12-4.5,2.221-9.007,3.426-13.5C317.7,437.819,339.4,384.414,365.248,334.08a464.477,464.477,0,0,1,43.259-69.554c10.42-13.675,34.995-29.931,44.5-43.936-51.988,84.468-70.759,190.155-100.777,281.987-7.327,22.41-14.7,44.783-21.922,67.2,45.268-80.421,115.5-146.5,213.152-175.131-118.2,69.186-189.1,190.348-236.877,314.266-.157,1.47-.345,2.939-.506,4.411,14.059-23.636,31.768-45.015,55.769-59.989,51.369-32.055,108.355-22.716,158.185,4.78-39.108-22.022-109.788-1.969-142.694,20.414-23.557,16.023-43.689,37.519-61.172,58.49-4.189,5.027-9.9,10.892-15.942,17.151a702.557,702.557,0,0,1-41.79,144.98c3.223-13.766.893-35.782,1.787-46.043.1-1.111.176-2.223.273-3.33q-4.453,15.751-8.6,31.1c5.49-19.49,8.473-39.837,10.8-60.394.6-8.834,1.185-17.669,1.8-26.5q-.294-25.148-2.294-50.456c-4.675-16.385-9.909-31.839-14.226-44.692-15.577-46.376-38.411-90.805-66.517-132.253Q143,509.835,89.69,463.5c-19.1-16.7-39.095-32.6-58.805-48.728C23.757,408.943,11.018,394.61,0,387.139c80.242,39.189,162.834,81.586,221.371,144.728-6.863-23.346-14.317-46.361-22.2-68.915C159.167,348.523,108.658,229.928,39.712,126.5Z" fill="#25be3e"/>
            <path id="Base-2" data-name="Base" d="M0,0C0,127.078,11.36,230.1,163.837,230.1S327.675,127.078,327.675,0" transform="translate(119.881 754.007)" fill="#ebb70d"/>
          </g>
          <g id="Group_15" data-name="Group 15" transform="translate(-79 -31.837)">
            <g id="A_Human_Sitting" data-name="A Human/Sitting" transform="translate(1568.749 804.465)">
              <g id="Head_Front" data-name="Head/Front" transform="translate(64.046)">
                <g id="Head" transform="translate(41.511 49.237)">
                  <path id="Head-2" data-name="Head" d="M70.639,302.863c-11.977-3.016-21.626-7.212-26.428-12.893C15.01,255.421,8.418,181.258.579,97.181-12.148-39.3,188.893-11.618,226.014,56.236s-6.566,238.667-54.54,250.795a95.419,95.419,0,0,1-15.174,1.915L137.543,412.992l-46.559,1.527Z" transform="translate(0 0)" fill="#d4a181"/>
                </g>
                <path id="Hair" d="M62.077,290.647C44.128,206.459-7,149.072.805,111.444s41.627-46.8,41.627-46.8,17.49-74.6,112.821-63.461C188.9,5.116,239.89,32,262.744,64.644c41.613,59.439,39.594,146.431,23.337,205.855-23.1,0-11.707-136.223-50.265-121.134-18.351,7.181-134.939-26.705-173.74,8.615S80.613,290.647,80.613,290.647Z" transform="translate(0 -0.05)" fill="#191847"/>
              </g>
              <g id="Body_Long_Sleeve_1" data-name="Body/Long Sleeve 1" transform="translate(0 399.026)">
                <path id="Shirt" d="M-.932,511.33l435.968-3.044s-5.769-143.984-5.175-283.97c.286-67.493-3.386-121.367-10.291-135.832-21.245-44.506-141.713-68.53-150.093-79.06-51.328,12.653-101.07,0-101.07,0C163.032,16.971,49.883,59.22,25.452,92.6S11.078,370.31-.932,511.33Z" transform="translate(0.932 -9.424)" fill="#f2f2f2"/>
              </g>
            </g>
            <circle id="Ellipse_37" data-name="Ellipse 37" cx="18" cy="18" r="18" transform="translate(1771 1214.837)"/>
            <path id="Path_55" data-name="Path 55" d="M2.434,5.181h0c18.887,26.79,35.349,0,35.349,0L54.17,304.368H-13.654Z" transform="translate(1768.716 1239.563)"/>
          </g>
          <path id="Table" d="M832.149,855.94V151.026H168.03V855.748H0V0H1000.179V855.94Z" transform="translate(1207.879 1524.27)" fill="#ffbe5d"/>
          <g id="Path_56" data-name="Path 56" transform="translate(1490.681 1235)" fill="#608eec">
            <path d="M 145.8294830322266 288.5000305175781 L 0.5169909596443176 288.5000305175781 L 9.867952346801758 8.480893135070801 L 167.8825988769531 -60.79252624511719 L 121.2426910400391 165.6598968505859 L 121.2221908569336 165.7593841552734 L 121.2421951293945 165.8590240478516 L 145.8294830322266 288.5000305175781 Z" stroke="none"/>
            <path d="M 167.1978302001953 -59.9464111328125 L 10.35716247558594 8.812332153320313 L 1.033966064453125 287.9999694824219 L 145.2192535400391 287.9999694824219 L 120.7519226074219 165.9573364257813 L 120.7119598388672 165.7580718994141 L 120.7529602050781 165.5590209960938 L 167.1978302001953 -59.9464111328125 M 168.5673675537109 -61.63870239257813 L 121.732421875 165.7607574462891 L 146.4396514892578 288.9999694824219 L 1.52587890625e-05 288.9999694824219 L 9.378738403320313 8.149398803710938 L 168.5673675537109 -61.63870239257813 Z" stroke="none" fill="#608eec"/>
          </g>
          <g id="Path_57" data-name="Path 57" transform="translate(1779 1212)" fill="#608eec">
            <path d="M 153.7577056884766 313.0234680175781 L -1.190238833427429 313.0234680175781 L 34.27604675292969 193.6707305908203 L 34.31127548217773 193.5522308349609 L 34.2872314453125 193.4309997558594 L -11.10263633728027 -35.2578239440918 L 144.1403350830078 20.54712867736816 L 153.7577056884766 313.0234680175781 Z" stroke="none"/>
            <path d="M -10.440185546875 -34.48843383789063 L 34.77764129638672 193.3336486816406 L 34.82577514648438 193.5761413574219 L 34.75536346435547 193.8131866455078 L -0.5200042724609375 312.5234069824219 L 153.2409973144531 312.5234069824219 L 143.6517639160156 20.90280151367188 L -10.440185546875 -34.48843383789063 M -11.76513671875 -36.02737426757813 L 144.62890625 20.19140625 L 154.2744140625 313.5234069824219 L -1.86041259765625 313.5234069824219 L 33.79677581787109 193.5283203125 L -11.76513671875 -36.02737426757813 Z" stroke="none" fill="#608eec"/>
          </g>
          <path id="Path_58" data-name="Path 58" d="M0,0H168L156.4,209.569,139.933,469H28.8L10.275,201.337Z" transform="translate(1759 1674)" fill="#608eec"/>
          <path id="LegLower-2" data-name="LegLower" d="M6.782,214.623C-.683,194.675,50.241,23.294,61.477,11.791c26.794-27.43,83.875-2.486,83.782,12.214-.212,33.374-38.176,180.642-45.7,190.585S11.474,227.16,6.782,214.623Z" transform="translate(1679.848 2195.366) rotate(163)" fill="#d4a181"/>
          <path id="Path_59" data-name="Path 59" d="M0,0H168L156.4,209.569,139.933,469H28.8L10.275,201.337Z" transform="translate(1490 1674)" fill="#608eec"/>
          <path id="Path_60" data-name="Path 60" d="M0,0H95V21.432l-3.607,15.8L86.644,68H9.071L0,16.748Z" transform="translate(1527 2165)" fill="#efe3e3"/>
          <g id="Path_61" data-name="Path 61" transform="translate(1527 2195)">
            <path d="M 52.38613891601563 138.9462890625 C 49.48022842407227 138.9462890625 46.64150238037109 138.4302520751953 43.94881057739258 137.4125213623047 C 41.36806488037109 136.4371337890625 38.85015869140625 134.97412109375 36.46501159667969 133.0641632080078 C 32.00279235839844 129.490966796875 27.84019470214844 124.2264022827148 24.09286689758301 117.416748046875 C 17.7525577545166 105.895149230957 12.47948455810547 89.81554412841797 8.420139312744141 69.62460327148438 C 4.804248332977295 51.63932800292969 2.84324836730957 33.66112899780273 1.834884762763977 21.74632835388184 C 0.9480065107345581 11.26696968078613 0.6227551698684692 3.519618988037109 0.530499279499054 0.927821934223175 L 14.44989967346191 9.743125915527344 C 14.78643417358398 10.00520038604736 19.01701164245605 13.26574993133545 25.16779327392578 16.4792366027832 C 31.06961250305176 19.56267356872559 40.00608444213867 23.23823738098145 49.06370162963867 23.23823738098145 C 58.11891937255859 23.23823738098145 67.24428558349609 19.56403732299805 73.30497741699219 16.48176574707031 C 79.85817718505859 13.149001121521 84.34697723388672 9.766201019287109 84.39154052734375 9.732419013977051 L 84.40615844726563 9.721346855163574 L 84.41993713378906 9.709237098693848 L 94.23539733886719 1.0688716173172 C 94.31748199462891 3.27962064743042 94.49187469482422 8.857363700866699 94.49904632568359 16.49125480651855 C 94.50766754150391 25.6706371307373 94.26935577392578 39.78474807739258 93.0850830078125 54.89563751220703 C 91.75484466552734 71.86871337890625 89.52693939208984 86.61325836181641 86.46326446533203 98.71971130371094 C 82.64653778076172 113.801872253418 77.52208709716797 124.7900924682617 71.23223114013672 131.379150390625 C 68.91517639160156 133.8064422607422 66.40351867675781 135.6675415039063 63.76704788208008 136.9107818603516 C 61.0009765625 138.2151489257813 58.01657485961914 138.8769073486328 54.89677429199219 138.8777160644531 C 54.89523315429688 138.8777160644531 54.89366149902344 138.8777160644531 54.89212036132813 138.8777160644531 C 54.71830368041992 138.8777160644531 54.54680633544922 138.8756866455078 54.36793899536133 138.8715209960938 L 54.34328460693359 138.8709716796875 L 54.31868362426758 138.8728179931641 C 53.67239379882813 138.9215698242188 53.02217483520508 138.9462890625 52.38613891601563 138.9462890625 Z" stroke="none"/>
            <path d="M 1.065963745117188 1.858749389648438 C 1.194427490234375 5.104400634765625 1.538055419921875 12.31515502929688 2.335182189941406 21.72865295410156 C 3.343017578125 33.63047790527344 5.302619934082031 51.58789825439453 8.914718627929688 69.54779815673828 C 12.96437835693359 89.68338012695313 18.21991729736328 105.7104339599609 24.53536224365234 117.1837768554688 C 28.25050354003906 123.9331512451172 32.37033843994141 129.1455535888672 36.78041839599609 132.6761932373047 C 39.12422180175781 134.5525970458984 41.59601974487305 135.9889831542969 44.12720108032227 136.9454345703125 C 46.76272201538086 137.9413299560547 49.54141998291016 138.4462890625 52.38614273071289 138.4462890625 C 53.00962066650391 138.4462890625 53.64718246459961 138.4220581054688 54.28108215332031 138.3742370605469 L 54.33026123046875 138.3705139160156 L 54.37958145141602 138.3716735839844 C 54.5538215637207 138.3757171630859 54.72304153442383 138.3777008056641 54.89690017700195 138.3777008056641 C 57.94216156005859 138.3777008056641 60.85457992553711 137.7328186035156 63.55327987670898 136.4609375 C 66.13368225097656 135.2448425292969 68.59519958496094 133.4205322265625 70.86946105957031 131.0387420654297 C 77.09866333007813 124.5149993896484 82.18154144287109 113.6039733886719 85.97689819335938 98.60871887207031 C 89.03382110595703 86.53102111816406 91.25733947753906 71.81573486328125 92.58572387695313 54.87163543701172 C 93.76911926269531 39.77659606933594 94.00748443603516 25.67529296875 93.99906158447266 16.50385284423828 C 93.99297332763672 9.884674072265625 93.86104583740234 4.812164306640625 93.77267456054688 2.142288208007813 L 84.75030517578125 10.08451843261719 L 84.7227783203125 10.10874938964844 L 84.69354248046875 10.13092041015625 C 84.51007843017578 10.26994323730469 80.12460327148438 13.57443237304688 73.53162384033203 16.92743682861328 C 67.42219543457031 20.03449249267578 58.21796035766602 23.73823547363281 49.06370162963867 23.73823547363281 C 39.90464019775391 23.73823547363281 30.88770294189453 20.03175354003906 24.93626403808594 16.92239379882813 C 18.77651214599609 13.7042236328125 14.64499664306641 10.52964782714844 14.16086578369141 10.15188598632813 L 1.065963745117188 1.858749389648438 M 0 0 L 14.73830413818359 9.33392333984375 C 14.73830413818359 9.33392333984375 31.72588348388672 22.73823547363281 49.06370162963867 22.73823547363281 C 66.40151977539063 22.73823547363281 84.08956146240234 9.33392333984375 84.08956146240234 9.33392333984375 L 94.69290161132813 0 C 94.69290161132813 0 101.1388854980469 139.3777008056641 54.89690780639648 139.3777008056641 C 54.7155647277832 139.3777008056641 54.53926467895508 139.3756561279297 54.35630035400391 139.3713989257813 C 53.69269943237305 139.4214477539063 53.03372192382813 139.4462890625 52.38613128662109 139.4462890625 C 3.684501647949219 139.4462890625 0 0 0 0 Z" stroke="none" fill="#707070"/>
          </g>
          <path id="Path_62" data-name="Path 62" d="M0,0H95L91.393,37.229,86.644,68H9.071L4.321,37.229Z" transform="translate(1796 2165)" fill="#efe3e3"/>
          <g id="Path_63" data-name="Path 63" transform="translate(1796 2195)">
            <path d="M 52.38613891601563 138.9462890625 C 49.48022842407227 138.9462890625 46.64150238037109 138.4302520751953 43.94881057739258 137.4125213623047 C 41.36806488037109 136.4371337890625 38.85015869140625 134.97412109375 36.46501159667969 133.0641632080078 C 32.00279235839844 129.490966796875 27.84019470214844 124.2264022827148 24.09286689758301 117.416748046875 C 17.7525577545166 105.895149230957 12.47948455810547 89.81554412841797 8.420139312744141 69.62460327148438 C 4.804248332977295 51.63932800292969 2.84324836730957 33.66112899780273 1.834884762763977 21.74632835388184 C 0.9480065107345581 11.26696968078613 0.6227551698684692 3.519618988037109 0.530499279499054 0.927821934223175 L 14.44989967346191 9.743125915527344 C 14.78643417358398 10.00520038604736 19.01701164245605 13.26574993133545 25.16779327392578 16.4792366027832 C 31.06961250305176 19.56267356872559 40.00608444213867 23.23823738098145 49.06370162963867 23.23823738098145 C 58.11891937255859 23.23823738098145 67.24428558349609 19.56403732299805 73.30497741699219 16.48176574707031 C 79.85817718505859 13.149001121521 84.34697723388672 9.766201019287109 84.39154052734375 9.732419013977051 L 84.40615844726563 9.721346855163574 L 84.41993713378906 9.709237098693848 L 94.23539733886719 1.0688716173172 C 94.31748199462891 3.27962064743042 94.49187469482422 8.857363700866699 94.49904632568359 16.49125480651855 C 94.50766754150391 25.6706371307373 94.26935577392578 39.78474807739258 93.0850830078125 54.89563751220703 C 91.75484466552734 71.86871337890625 89.52693939208984 86.61325836181641 86.46326446533203 98.71971130371094 C 82.64653778076172 113.801872253418 77.52208709716797 124.7900924682617 71.23223114013672 131.379150390625 C 68.91517639160156 133.8064422607422 66.40351867675781 135.6675415039063 63.76704788208008 136.9107818603516 C 61.0009765625 138.2151489257813 58.01657485961914 138.8769073486328 54.89677429199219 138.8777160644531 C 54.89523315429688 138.8777160644531 54.89366149902344 138.8777160644531 54.89212036132813 138.8777160644531 C 54.71830368041992 138.8777160644531 54.54680633544922 138.8756866455078 54.36793899536133 138.8715209960938 L 54.34328460693359 138.8709716796875 L 54.31868362426758 138.8728179931641 C 53.67239379882813 138.9215698242188 53.02217483520508 138.9462890625 52.38613891601563 138.9462890625 Z" stroke="none"/>
            <path d="M 1.065963745117188 1.858749389648438 C 1.194427490234375 5.104400634765625 1.538055419921875 12.31515502929688 2.335182189941406 21.72865295410156 C 3.343017578125 33.63047790527344 5.302619934082031 51.58789825439453 8.914718627929688 69.54779815673828 C 12.96437835693359 89.68338012695313 18.21991729736328 105.7104339599609 24.53536224365234 117.1837768554688 C 28.25050354003906 123.9331512451172 32.37033843994141 129.1455535888672 36.78041839599609 132.6761932373047 C 39.12422180175781 134.5525970458984 41.59601974487305 135.9889831542969 44.12720108032227 136.9454345703125 C 46.76272201538086 137.9413299560547 49.54141998291016 138.4462890625 52.38614273071289 138.4462890625 C 53.00962066650391 138.4462890625 53.64718246459961 138.4220581054688 54.28108215332031 138.3742370605469 L 54.33026123046875 138.3705139160156 L 54.37958145141602 138.3716735839844 C 54.5538215637207 138.3757171630859 54.72304153442383 138.3777008056641 54.89690017700195 138.3777008056641 C 57.94216156005859 138.3777008056641 60.85457992553711 137.7328186035156 63.55327987670898 136.4609375 C 66.13368225097656 135.2448425292969 68.59519958496094 133.4205322265625 70.86946105957031 131.0387420654297 C 77.09866333007813 124.5149993896484 82.18154144287109 113.6039733886719 85.97689819335938 98.60871887207031 C 89.03382110595703 86.53102111816406 91.25733947753906 71.81573486328125 92.58572387695313 54.87163543701172 C 93.76911926269531 39.77659606933594 94.00748443603516 25.67529296875 93.99906158447266 16.50385284423828 C 93.99297332763672 9.884674072265625 93.86104583740234 4.812164306640625 93.77267456054688 2.142288208007813 L 84.75030517578125 10.08451843261719 L 84.7227783203125 10.10874938964844 L 84.69354248046875 10.13092041015625 C 84.51007843017578 10.26994323730469 80.12460327148438 13.57443237304688 73.53162384033203 16.92743682861328 C 67.42219543457031 20.03449249267578 58.21796035766602 23.73823547363281 49.06370162963867 23.73823547363281 C 39.90464019775391 23.73823547363281 30.88770294189453 20.03175354003906 24.93626403808594 16.92239379882813 C 18.77651214599609 13.7042236328125 14.64499664306641 10.52964782714844 14.16086578369141 10.15188598632813 L 1.065963745117188 1.858749389648438 M 0 0 L 14.73830413818359 9.33392333984375 C 14.73830413818359 9.33392333984375 31.72588348388672 22.73823547363281 49.06370162963867 22.73823547363281 C 66.40151977539063 22.73823547363281 84.08956146240234 9.33392333984375 84.08956146240234 9.33392333984375 L 94.69290161132813 0 C 94.69290161132813 0 101.1388854980469 139.3777008056641 54.89690780639648 139.3777008056641 C 54.7155647277832 139.3777008056641 54.53926467895508 139.3756561279297 54.35630035400391 139.3713989257813 C 53.69269943237305 139.4214477539063 53.03372192382813 139.4462890625 52.38613128662109 139.4462890625 C 3.684501647949219 139.4462890625 0 0 0 0 Z" stroke="none" fill="#707070"/>
          </g>
        </g>
      </svg>